<svg xmlns="http://www.w3.org/2000/svg" width="430" height="430" fill="none" viewBox="0 0 430 430"><g stroke-linecap="round" stroke-linejoin="round" stroke-width="12"><path stroke="#121331" d="M375.12 295.06H54.88V134.94h320.24zM161.63 134.94v160.12m106.74-160.12v160.12"/><path stroke="#30c9e8" d="M108.25 252.24a22.41 22.41 0 0 0 22.41-22.41v-29.66a22.41 22.41 0 0 0-22.41-22.41v0a22.41 22.41 0 0 0-22.41 22.41v29.66a22.41 22.41 0 0 0 22.41 22.41m106.75 0a22.41 22.41 0 0 0 22.41-22.41v-29.66A22.41 22.41 0 0 0 215 177.76v0a22.4 22.4 0 0 0-15.846 6.564 22.4 22.4 0 0 0-6.564 15.846v29.66A22.41 22.41 0 0 0 215 252.24m91.44-50.96 23.48-23.48v74.4"/></g></svg>