<svg xmlns="http://www.w3.org/2000/svg" width="430" height="430" fill="none" viewBox="0 0 430 430"><path fill="#4bb3fd" d="M347.13 52.98h-240a2 2 0 0 0-2 2v320.04a2 2 0 0 0 2 2h240a2 2 0 0 0 2-2V54.98a2 2 0 0 0-2-2"/><path fill="#4bb3fd" d="M145.7 53h-38.57a2 2 0 0 0-2 2v320a2 2 0 0 0 2 2h38.57z" opacity=".5" style="mix-blend-mode:multiply"/><path fill="#30c9e8" d="M102.91 349.44q-.27.022-.54 0a29.49 29.49 0 1 1 34-30.18 3.51 3.51 0 0 1-2.05 3.308 3.51 3.51 0 0 1-3.84-.628 3.5 3.5 0 0 1-1.11-2.44 22.511 22.511 0 0 0-37.435-16.087A22.51 22.51 0 0 0 103.44 342.5a3.51 3.51 0 1 1-.53 7zm0-70q-.27.022-.54 0a29.49 29.49 0 1 1 34-30.18 3.505 3.505 0 0 1-3.38 3.62 3.5 3.5 0 0 1-3.62-3.38 22.511 22.511 0 0 0-37.435-16.087A22.51 22.51 0 0 0 103.44 272.5a3.51 3.51 0 1 1-.53 7zm0-70q-.27.023-.54 0a29.487 29.487 0 0 1-15.049-51.195 29.5 29.5 0 0 1 31.191-5.052 29.48 29.48 0 0 1 17.858 26.067 3.51 3.51 0 0 1-2.05 3.308 3.51 3.51 0 0 1-3.84-.628 3.5 3.5 0 0 1-1.11-2.44 22.511 22.511 0 0 0-37.435-16.087A22.51 22.51 0 0 0 103.44 202.5a3.51 3.51 0 1 1-.53 7zm0-70q-.27.022-.54 0a29.487 29.487 0 0 1-15.049-51.195 29.491 29.491 0 0 1 49.049 21.015 3.505 3.505 0 0 1-3.38 3.62 3.5 3.5 0 0 1-3.62-3.38 22.511 22.511 0 0 0-37.435-16.087A22.509 22.509 0 0 0 103.44 132.5a3.515 3.515 0 0 1 3.07 2.405 3.5 3.5 0 0 1-.203 2.679 3.5 3.5 0 0 1-2.038 1.751c-.438.144-.899.2-1.359.165z"/><path fill="#ebe6ef" d="M307 250.88c0 2.53-8.08 10.4-19.39 18.72a16.5 16.5 0 0 1-9.92 2.78c-15.54 0-40.35-13.62-61.94-35.2S180.46 190.6 180.46 175a16.57 16.57 0 0 1 2.72-9.86c9.12-12.63 17.94-21 19.66-18.59.86 1.19 2.34 3.24 4 5.58s3.61 5 5.35 7.35l5.14 7.1 3.67 4.92c.292.44.435.962.41 1.49 0 2.3-2 5.95-5.16 9.12-2.73 2.73-4.27 5.94-4.27 8.39a3.82 3.82 0 0 0 1 2.78l8.59 8.58L236.65 217l14.93 14.92c4.17 4.17 7.19 7.2 8.1 8.1a2.7 2.7 0 0 0 2 .71c2.26 0 5.57-1.74 8.49-4.66 3.25-3.25 6.91-5.34 9.05-5.34.425-.02.845.095 1.2.33l5 3.67c2.33 1.69 5.13 3.75 7.85 5.72s5.58 4.08 8 5.85l5.43 4a.74.74 0 0 1 .3.58"/></svg>