<svg xmlns="http://www.w3.org/2000/svg" width="430" height="430" fill="none" viewBox="0 0 430 430"><path fill="#30c9e8" d="M342.688 67.12a3 3 0 0 1 4.243 0l55.861 55.862a3 3 0 0 1 0 4.243L177.078 352.939a3 3 0 0 1-4.243 0L32.121 212.225a3 3 0 0 1 0-4.243l55.861-55.861a3 3 0 0 1 4.243 0l82.731 82.731z"/><path fill="#30c9e8" d="m175 234.809-.044.043-82.732-82.732a3 3 0 0 0-4.242.001l-55.861 55.861a3 3 0 0 0 0 4.243l140.714 140.714c.597.597 1.382.89 2.165.879z" opacity=".5" style="mix-blend-mode:multiply"/></svg>