<svg xmlns="http://www.w3.org/2000/svg" width="430" height="430" fill="none" viewBox="0 0 430 430"><path fill="#4bb3fd" d="M350.72 146.5H148.79l-36.43-36.43-28.51-28.5h201.94l23.61 23.62zm0 201.94H148.79V146.5h201.93z"/><path fill="#4bb3fd" d="M148.79 348.44 83.85 283.5V81.57l64.94 64.93z"/><path fill="#4bb3fd" d="M148.79 348.44 83.85 283.5V81.57l64.94 64.93z" style="mix-blend-mode:multiply"/><path fill="#4bb3fd" d="M350.72 146.5H148.79L83.85 81.57h201.94z" opacity=".5" style="mix-blend-mode:multiply"/><path fill="#ebe6ef" d="M195 212c-.54 0-1.09 0-1.63-.08s-1.07-.14-1.6-.25a15 15 0 0 1-1.57-.39c-.51-.16-1-.34-1.52-.55a17.3 17.3 0 0 1-2.84-1.51c-.44-.29-.89-.63-1.31-1a14 14 0 0 1-1.2-1.09 16 16 0 0 1-1.09-1.2c-.34-.42-.67-.86-1-1.3s-.58-.92-.83-1.39-.49-1-.69-1.46-.39-1-.55-1.52-.29-1-.39-1.57a17.3 17.3 0 0 1-.33-3.23 16.61 16.61 0 0 1 6.04-12.75c.42-.34.86-.66 1.3-1s.92-.58 1.39-.83 1-.48 1.46-.69 1-.39 1.52-.55 1.05-.29 1.57-.39a15 15 0 0 1 1.6-.24c1.081-.11 2.17-.11 3.25 0a15 15 0 0 1 1.6.24c.53.1 1.05.24 1.57.39s1 .34 1.52.55 1 .44 1.46.69q.713.377 1.38.83c.45.3.89.62 1.31 1q.629.513 1.2 1.09a16.6 16.6 0 0 1 4.84 11.66 17.3 17.3 0 0 1-.33 3.23c-.1.52-.24 1.05-.39 1.57s-.34 1-.55 1.52-.44 1-.69 1.46-.53.94-.83 1.39-.62.88-1 1.3q-.513.628-1.09 1.2-.568.581-1.2 1.09c-.42.34-.86.67-1.31 1s-.91.57-1.38.82q-.711.385-1.46.69c-.5.21-1 .39-1.52.55q-.774.237-1.57.39c-.53.11-1.07.19-1.6.25s-1.04.08-1.54.08m-77.17-13.54c-5.8 0-9.4-6.27-9.4-16.37s3.6-16.38 9.4-16.38 9.4 6.28 9.4 16.38-3.6 16.37-9.4 16.37m-9 68c-5.8 0-9.4-6.27-9.4-16.37s3.6-16.38 9.4-16.38 9.4 6.28 9.4 16.38-3.6 16.37-9.4 16.37m108.46-143.3c-10.1 0-16.37-3.6-16.37-9.4s6.27-9.4 16.37-9.4 16.38 3.6 16.38 9.4-6.28 9.4-16.38 9.4M247.47 265a16.4 16.4 0 0 1-3.23-.32c-.52-.1-1.05-.24-1.56-.39a15 15 0 0 1-1.52-.55 15 15 0 0 1-1.46-.69 16 16 0 0 1-1.39-.82c-.45-.3-.89-.63-1.31-1s-.82-.71-1.2-1.09a16 16 0 0 1-1.09-1.2c-.34-.42-.66-.86-1-1.3s-.58-.92-.83-1.39-.48-1-.69-1.46-.39-1-.54-1.52-.29-1-.4-1.57q-.165-.793-.24-1.6a15 15 0 0 1-.08-1.62 16.3 16.3 0 0 1 .32-3.23c.11-.52.24-1.05.4-1.56q.23-.774.54-1.52c.21-.5.44-1 .69-1.46q.374-.719.83-1.39a16.7 16.7 0 0 1 2.05-2.51c.38-.38.79-.75 1.2-1.09s.86-.66 1.31-1a14 14 0 0 1 1.39-.83c.47-.25 1-.48 1.46-.69q.746-.316 1.52-.55c.51-.15 1-.29 1.56-.39a15 15 0 0 1 1.61-.24 16 16 0 0 1 3.24 0q.806.076 1.6.24c.53.1 1.05.24 1.57.39s1 .34 1.52.55 1 .44 1.46.69.94.53 1.39.83.88.62 1.3 1 .82.71 1.21 1.09a18.6 18.6 0 0 1 2.05 2.51q.445.674.82 1.39.39.709.69 1.46.315.746.55 1.52.238.769.39 1.56c.11.53.19 1.07.25 1.6s.08 1.09.08 1.63 0 1.08-.08 1.62-.14 1.07-.25 1.6q-.15.797-.39 1.57c-.16.51-.34 1-.55 1.52q-.302.75-.69 1.46c-.25.47-.53.94-.82 1.39s-.63.88-1 1.3a15 15 0 0 1-1.08 1.2c-.39.38-.79.75-1.21 1.09s-.85.67-1.3 1-.92.57-1.39.82-1 .49-1.46.69-1 .39-1.52.55-1 .29-1.57.39c-1.06.214-2.139.321-3.22.32zM300 316c-.54 0-1.08 0-1.62-.08s-1.08-.14-1.61-.24-1.05-.24-1.56-.4a16.3 16.3 0 0 1-2.98-1.23 16.7 16.7 0 0 1-3.9-2.88c-.38-.38-.74-.79-1.09-1.2s-.66-.86-1-1.31a14 14 0 0 1-.83-1.39c-.25-.47-.48-1-.69-1.46a15 15 0 0 1-.54-1.52c-.16-.51-.29-1-.4-1.56a15 15 0 0 1-.24-1.6c-.05-.54-.08-1.09-.08-1.63s0-1.08.08-1.62q.076-.806.24-1.6c.11-.53.24-1.05.4-1.57s.34-1 .54-1.52.44-1 .69-1.46.53-.94.83-1.39.62-.88 1-1.3.71-.82 1.09-1.21.79-.74 1.21-1.09.85-.66 1.3-1 .91-.57 1.39-.82q.708-.39 1.46-.69.746-.315 1.52-.55c.51-.15 1-.29 1.56-.39a15 15 0 0 1 1.61-.24c1.077-.11 2.163-.11 3.24 0a14 14 0 0 1 1.6.24c.53.1 1.06.24 1.57.39s1 .34 1.52.55q.751.3 1.46.69c.48.25.94.53 1.39.82s.88.63 1.3 1 .82.71 1.21 1.09.74.79 1.09 1.21.66.85 1 1.3.57.92.83 1.39.48 1 .69 1.46.38 1 .54 1.52.29 1 .4 1.57.18 1.07.24 1.6.08 1.08.08 1.62 0 1.09-.08 1.63-.14 1.07-.24 1.6-.24 1.05-.4 1.56-.34 1-.54 1.52-.44 1-.69 1.46-.54.95-.83 1.39-.62.89-1 1.31-.71.82-1.09 1.2-.79.75-1.21 1.09-.85.66-1.3 1q-.672.453-1.39.83c-.47.25-1 .48-1.46.69q-.747.308-1.52.54c-.51.16-1 .29-1.57.4s-1.06.19-1.6.24-1.11.04-1.62.04"/></svg>