<svg xmlns="http://www.w3.org/2000/svg" width="430" height="430" fill="none" viewBox="0 0 430 430"><path fill="#30c9e8" fill-rule="evenodd" d="m356.72 239.741 8.727 5.041a22.3 22.3 0 0 1 6.553 5.735 22.32 22.32 0 0 1 1.637 24.744l-26.515 45.924a22.32 22.32 0 0 1-30.497 8.172l-8.754-5.059a143.5 143.5 0 0 1-43.718 25.286v10.108a22.32 22.32 0 0 1-6.537 15.777 22.32 22.32 0 0 1-15.78 6.531h-53.029a22.32 22.32 0 0 1-15.78-6.531 22.3 22.3 0 0 1-6.536-15.777v-10.073a143.4 143.4 0 0 1-43.719-25.285l-8.754 5.059a22.33 22.33 0 0 1-30.497-8.172l-26.523-45.924a22.32 22.32 0 0 1-2.238-16.943A22.3 22.3 0 0 1 65.17 244.8l8.728-5.041a145.1 145.1 0 0 1 0-50.518L65.17 184.2a22.3 22.3 0 0 1-10.409-13.554 22.3 22.3 0 0 1 2.238-16.943l26.514-45.924a22.325 22.325 0 0 1 30.497-8.172l8.754 5.059a143.4 143.4 0 0 1 43.719-25.285V69.308a22.3 22.3 0 0 1 6.537-15.777A22.3 22.3 0 0 1 188.798 47h53.02a22.31 22.31 0 0 1 20.618 13.769 22.3 22.3 0 0 1 1.699 8.539v10.037a143.4 143.4 0 0 1 43.718 25.285l8.754-5.059a22.326 22.326 0 0 1 30.497 8.172l26.515 45.943a22.31 22.31 0 0 1-8.172 30.496l-8.727 5.041a145.1 145.1 0 0 1 0 50.518m-97.274-92.259A80 80 0 0 0 215 134a80 80 0 0 0-56.566 23.434A80 80 0 0 0 135 214a80.001 80.001 0 1 0 124.446-66.518" clip-rule="evenodd"/><path fill="#30c9e8" fill-rule="evenodd" d="M215 47h-26.202a22.3 22.3 0 0 0-20.617 13.769 22.3 22.3 0 0 0-1.699 8.539V79.38a143.4 143.4 0 0 0-43.719 25.285l-8.754-5.059a22.327 22.327 0 0 0-30.497 8.172l-26.514 45.924a22.32 22.32 0 0 0-2.238 16.943A22.3 22.3 0 0 0 65.17 184.2l8.728 5.041a145.1 145.1 0 0 0 0 50.518L65.17 244.8a22.3 22.3 0 0 0-10.409 13.554 22.3 22.3 0 0 0 2.238 16.943l26.523 45.924a22.324 22.324 0 0 0 30.497 8.172l8.754-5.059a143.4 143.4 0 0 0 43.719 25.285v10.073a22.3 22.3 0 0 0 6.536 15.777 22.32 22.32 0 0 0 15.78 6.531H215v-88a79.998 79.998 0 0 1-56.566-136.566A80 80 0 0 1 215 134z" clip-rule="evenodd" opacity=".5" style="mix-blend-mode:multiply"/></svg>