<svg xmlns="http://www.w3.org/2000/svg" width="430" height="430" fill="none" viewBox="0 0 430 430"><path fill="#30c9e8" d="M213.735 50.505a165 165 0 0 0-163.73 163.73c-.69 91.86 74.61 166.27 166.47 166.27h160.53a3 3 0 0 0 3-3v-160.53c0-91.86-74.41-167.16-166.27-166.47"/><path fill="#30c9e8" d="M75.06 215.5A165 165 0 0 1 227.53 50.97q-6.19-.47-12.53-.47a165 165 0 1 0 0 330h25.06a165.003 165.003 0 0 1-165-165" opacity=".5" style="mix-blend-mode:multiply"/><path fill="#fff" fill-rule="evenodd" d="M205.715 159.597c2.677-1.882 7.192-4.097 14.186-4.097 10.006 0 20.672 8.771 20.672 21.862 0 7.94-5.318 15.895-14.068 23.19-13.371 11.15-26.479 28.424-26.479 49.948v12a3 3 0 0 0 3 3h24a3 3 0 0 0 3-3v-12c0-8.92 5.682-18.56 15.692-26.907 10.969-9.146 24.855-24.756 24.855-46.231 0-30.469-24.919-51.862-50.672-51.862-13.967 0-24.403 4.609-31.436 9.552-7.79 5.475-12.567 13.101-17.599 20.909a3.02 3.02 0 0 0 .877 4.161l20.076 13.15c1.386.908 3.242.518 4.093-.904 2.757-4.608 5.482-9.734 9.803-12.771" clip-rule="evenodd"/><path fill="#fff" d="M233 303a17.5 17.5 0 0 1-10.803 16.168 17.498 17.498 0 0 1-23.861-12.754 17.51 17.51 0 0 1 7.442-17.965 17.496 17.496 0 0 1 22.096 2.177A17.5 17.5 0 0 1 233 303"/></svg>