<svg xmlns="http://www.w3.org/2000/svg" width="430" height="430" fill="none" viewBox="0 0 430 430"><path fill="#30c9e8" d="M186.08 149.05s-61.26-7.73-106.55 32.36a3 3 0 0 0 1.83 5.24c43.15 2.71 59.45 19 59.45 19m70.839 72.27c9.81 7.08 13.16 11.74 13.16 11.74s16.3 16.3 19 59.45a3.005 3.005 0 0 0 2.007 2.672 3 3 0 0 0 3.233-.842c40.11-45.24 32.52-105.82 32.52-105.82a47.4 47.4 0 0 0-5.23-15.56"/><path fill="#30c9e8" d="M186.08 149.05s-61.26-7.73-106.55 32.36a3 3 0 0 0 1.83 5.24c43.15 2.71 59.45 19 59.45 19m70.839 72.27c9.81 7.08 13.16 11.74 13.16 11.74s16.3 16.3 19 59.45a3.005 3.005 0 0 0 2.007 2.672 3 3 0 0 0 3.233-.842c40.11-45.24 32.52-105.82 32.52-105.82a47.4 47.4 0 0 0-5.23-15.56" opacity=".7" style="mix-blend-mode:multiply"/><path fill="#3a3347" d="m149.05 210.42-3.47 12.05-4.58 14.82a41.67 41.67 0 0 0 10.31 41.92 41.67 41.67 0 0 0 41.92 10.31l14.77-4.63 24.22-7.31"/><path fill="#30c9e8" d="M209.59 283.89a16.996 16.996 0 0 0 21.57 2c15.94-10.91 35.39-27.65 60.6-52.87C338.45 186.37 361 126.9 356.68 75.57a3.004 3.004 0 0 0-2.68-2.72c-51.33-4.35-110.8 18.23-157.49 64.92-25.22 25.21-42 44.66-52.87 60.6a17 17 0 0 0 2 21.57z"/><path fill="#fff" d="M277.149 194.48a29.768 29.768 0 0 1-50.821-21.05 29.768 29.768 0 0 1 50.821-21.05 29.76 29.76 0 0 1 6.456 32.443 29.8 29.8 0 0 1-6.456 9.657"/><path fill="#c71f16" d="M276.27 85.06s2.25 21.61 24.83 44.19 43.54 23.56 43.54 23.56 16.13-39.81 12.11-77.26a3.005 3.005 0 0 0-2.71-2.7c-40.24-3.4-77.77 12.21-77.77 12.21"/><path fill="#ffc738" d="M135.6 335.65c-10.6 10.63-36.95 18.81-58.91 21.59a3 3 0 0 1-3.33-3.45c3.52-22.74 10.8-48.27 21.45-58.92a28.84 28.84 0 0 1 40.79 40.78"/><path fill="#fff" d="M240 198.42a29.77 29.77 0 0 1 37-46.18 29.77 29.77 0 0 0-22.684-8.52 29.772 29.772 0 0 0-23.043 46.15 29.8 29.8 0 0 0 8.837 8.68z" opacity=".5" style="mix-blend-mode:multiply"/><path fill="#ffc738" d="M132.45 327.68c-7.72 7.72-26.84 13.66-42.8 15.68a2.19 2.19 0 0 1-1.832-.647 2.19 2.19 0 0 1-.588-1.853c2.56-16.53 7.85-35.08 15.59-42.81a20.999 20.999 0 0 1 34.795 15.11 21 21 0 0 1-5.165 14.52" opacity=".7" style="mix-blend-mode:multiply"/><path fill="#30c9e8" d="M276.27 85.06s.63 6.08 4.6 15.16a267.2 267.2 0 0 0-61.38 46.07c-35.21 35.21-55.68 60.37-67.09 80.41l-6.76-6.76a17 17 0 0 1-2-21.57c10.91-15.94 27.65-35.39 52.87-60.6 24.11-24.15 51.67-41.84 79.76-52.71m74.809-12.42c-.93-.06-1.86-.1-2.8-.14.93.04 1.87.08 2.8.14" opacity=".3" style="mix-blend-mode:multiply"/><path fill="#30c9e8" d="M348.28 72.5c-26.74-1.12-51.52 5.56-63.85 9.62 21.57-7.32 43.29-10.57 63.85-9.62" opacity=".3" style="mix-blend-mode:multiply"/><path fill="#c71f16" d="M356.5 74.76c-25.1 3.47-50.87 12-75.63 25.46-4-9.08-4.6-15.16-4.6-15.16l.18-.07c2.26-.86 4.52-1.69 6.78-2.47l1.18-.39c12.76-4.2 38.85-11.21 66.65-9.48h.64c.75 0 1.5.1 2.24.16a3 3 0 0 1 2.56 1.95" opacity=".5" style="mix-blend-mode:multiply"/><path fill="#c71f16" d="M283.25 82.51c-2.26.78-4.52 1.61-6.78 2.47.67-.27 3.05-1.22 6.78-2.47"/></svg>