<svg xmlns="http://www.w3.org/2000/svg" width="430" height="430" fill="none" viewBox="0 0 430 430"><path fill="#ebe6ef" d="M276.95 122.3C326.63 145.82 361 196.41 361 255.03l.01-.01c0 14.552-2.235 28.949-6.463 42.708h-280.8c-4.098-13.531-6.297-27.875-6.297-42.708 0-59.17 35.02-110.16 85.46-133.38 5.35-2.46 8.71-7.87 8.71-13.76V68.22h-.34c-7.18 0-13-5.82-13-13V41.19c0-7.18 5.82-13 13-13h107.43c7.18 0 13 5.82 13 13v14.03c0 7.18-5.82 13-13 13h-.34v40.68c0 5.76 3.38 10.94 8.58 13.4"/><path fill="#ebe6ef" d="M152.92 121.65c-50.44 23.22-85.46 74.21-85.46 133.38 0 13.858 1.92 27.289 5.513 40.03h45.497a147.4 147.4 0 0 1-5.51-40.03c0-59.17 35.02-110.16 85.46-133.38 5.35-2.47 8.71-7.88 8.71-13.77V68.22h-.34c-7.18 0-13-5.82-13-13V41.19c0-7.18 5.82-13 13-13h-45.5c-7.18 0-13 5.82-13 13v14.03c0 7.18 5.82 13 13 13h.34v39.66c0 5.89-3.36 11.3-8.71 13.77" opacity=".5" style="mix-blend-mode:multiply"/><path fill="#4bb3fd" d="M72.97 295.06c17.32 61.39 73.52 106.76 141.26 106.76s124.22-47.91 141.1-106.76z"/><path fill="#4bb3fd" d="M235.08 371.45c8.29 0 15.01-6.72 15.01-15.01s-6.72-15.01-15.01-15.01-15.01 6.72-15.01 15.01 6.721 15.01 15.01 15.01m50.99-23.89a9.33 9.33 0 0 0 9.33-9.33 9.33 9.33 0 0 0-9.33-9.33 9.33 9.33 0 0 0-9.33 9.33 9.33 9.33 0 0 0 9.33 9.33m-101.969-9.33a9.33 9.33 0 0 0 9.329-9.33 9.33 9.33 0 1 0-18.659 0 9.33 9.33 0 0 0 9.33 9.33m53.029 61.88c-7.39 1.12-15.04 1.71-22.9 1.71-67.74 0-123.94-45.38-141.26-106.76h45.5c15.35 54.41 61.25 96.24 118.66 105.05" opacity=".5" style="mix-blend-mode:multiply"/></svg>